<svg id="Capa_1" enable-background="new 0 0 512 512" height="512" viewBox="0 0 512 512" width="512" xmlns="http://www.w3.org/2000/svg"><g><g><g><path d="m264.088 212.153-105.927 63.901-31.675 129.466 31.675 89.243h238.845c17.124 0 31.003-13.879 31.003-31.016 0-8.555-3.466-16.319-9.075-21.928s-13.373-9.075-21.928-9.075h11.126c17.124 0 31.016-13.879 31.016-31.016 0-8.569-3.466-16.306-9.088-21.928-5.608-5.609-13.359-9.075-21.928-9.075h11.139c17.124 0 31.003-13.879 31.003-31.016 0-17.125-13.879-31.003-31.003-31.003h-11.139c17.124 0 31.016-13.879 31.016-31.016 0-8.569-3.466-16.306-9.088-21.928-5.608-5.608-13.359-9.075-21.928-9.075h-59.487l-27.575-27.588c-15.139-15.138-38.651-17.994-56.982-6.946z" fill="#ffddce"/><g><path d="m425.83 452.328c1.4 3.537 2.178 7.388 2.178 11.419 0 17.138-13.879 31.016-31.003 31.016h-238.844v-22.84h238.845c13.092 0 24.278-8.117 28.824-19.595z" fill="#ffcbbe"/></g><g><path d="m436.957 390.309c1.4 3.537 2.178 7.388 2.178 11.419 0 17.138-13.879 31.016-31.003 31.016h-11.882c-6.307 0-11.42-5.113-11.42-11.42 0-6.307 5.113-11.42 11.42-11.42h11.882c13.092 0 24.278-8.116 28.825-19.595z" fill="#ffcbbe"/></g><g><path d="m448.096 328.29c1.4 3.537 2.178 7.388 2.178 11.419 0 17.138-13.879 31.016-31.003 31.016h-11.882c-6.307 0-11.42-5.113-11.42-11.42 0-6.307 5.113-11.42 11.42-11.42h11.882c13.092 0 24.279-8.116 28.825-19.595z" fill="#ffcbbe"/></g><g><path d="m436.97 266.272c1.4 3.537 2.178 7.388 2.178 11.419 0 17.138-13.879 31.016-31.003 31.016h-11.882c-6.307 0-11.42-5.113-11.42-11.42 0-6.307 5.113-11.42 11.42-11.42h11.882c13.092-.001 24.278-8.117 28.825-19.595z" fill="#ffcbbe"/></g><path d="m407.197 112.33v134.36h-103.75v-134.36l51.87-13.303z" fill="#da4a54"/><path d="m407.197 112.33v2.96c-15.69 7.57-33.29 11.81-51.88 11.81s-36.18-4.24-51.87-11.81v-2.96l21.22-42.88 30.65-61.95 30.66 61.95z" fill="#ffef4a"/><path d="m61.715 286.84v193.376c0 13.412 10.872 24.284 24.284 24.284h47.881c13.412 0 24.284-10.872 24.284-24.284v-193.376c0-13.412-10.872-24.284-24.284-24.284h-47.881c-13.411 0-24.284 10.873-24.284 24.284z" fill="#f9f6f9"/><path d="m342.487 102.32-2.67 23.9v120.47h-36.37v-134.36z" fill="#d82e3d"/><path d="m61.709 419.307v60.916c0 13.411 10.88 24.278 24.291 24.278h47.881c13.411 0 24.278-10.867 24.278-24.278v-60.916c0 13.411-10.866 24.291-24.278 24.291h-47.881c-13.411 0-24.291-10.88-24.291-24.291z" fill="#e2dfe2"/><path d="m340.921 64.214 4.515 11.686-5.609 50.2c-12.88-1.66-25.12-5.38-36.38-10.81v-2.96l21.22-42.88 16.469-18.752z" fill="#ffd321"/><path d="m385.977 69.45c-9.24 4.59-19.65 7.16-30.66 7.16s-21.41-2.57-30.65-7.16l30.65-61.95z" fill="#655e66"/><path d="m355.327 7.52v.01l-9.17 61.92-.72 6.45c-7.36-1.04-14.34-3.26-20.77-6.45l30.65-61.95z" fill="#535057"/></g><circle cx="111.236" cy="445.535" fill="#655e66" r="21.948"/></g><g><path d="m446.646 401.736c0-10.239-3.96-19.857-11.15-27.101 13.148-6.135 22.281-19.481 22.281-34.922 0-15.447-9.141-28.798-22.298-34.93 6.9-6.963 11.167-16.539 11.167-27.093 0-10.293-4.008-19.962-11.281-27.221-5.703-5.703-12.882-9.385-20.672-10.715v-65.874c0-4.142-3.357-7.5-7.5-7.5s-7.5 3.358-7.5 7.5v65.31h-88.75v-112.559c14.135 5.287 29.012 7.969 44.374 7.969 15.366 0 30.242-2.681 44.376-7.966v17.246c0 4.142 3.357 7.5 7.5 7.5s7.5-3.358 7.5-7.5v-31.55c0-1.154-.267-2.292-.778-3.327l-51.88-104.83c-1.265-2.556-3.87-4.173-6.722-4.173-2.853 0-5.457 1.618-6.722 4.174l-51.87 104.83c-.512 1.034-.778 2.172-.778 3.326v86.217c-12.284-1.809-24.884.646-35.733 7.19l-101.542 61.243c-5.829-7.26-14.771-11.921-24.785-11.921h-47.88c-17.523 0-31.779 14.256-31.779 31.78v128.4c0 4.142 3.357 7.5 7.5 7.5s7.5-3.358 7.5-7.5v-128.4c0-9.252 7.527-16.78 16.779-16.78h47.88c9.253 0 16.78 7.527 16.78 16.78l-.004 193.458c-.042 9.217-7.549 16.703-16.776 16.703h-47.88c-9.252 0-16.779-7.527-16.779-16.78v-34.98c0-4.142-3.357-7.5-7.5-7.5s-7.5 3.358-7.5 7.5v34.98c0 17.523 14.256 31.78 31.779 31.78h47.88c9.031 0 17.187-3.792 22.978-9.86.422.074.855.12 1.298.12h238.845c21.235 0 38.512-17.276 38.512-38.511 0-10.232-3.96-19.846-11.15-27.09 13.147-6.136 22.28-19.482 22.28-34.923zm-134.226-290.637 15.798-31.927c8.617 3.275 17.7 4.938 27.099 4.938 9.401 0 18.485-1.662 27.1-4.935l15.8 31.927c-13.57 5.642-27.972 8.498-42.9 8.498-14.924 0-29.325-2.857-42.897-8.501zm42.894-86.689 20.408 41.238c-6.509 2.293-13.342 3.462-20.405 3.462-7.062 0-13.896-1.17-20.406-3.465zm52.82 400.838h-11.131c-4.143 0-7.5 3.358-7.5 7.5s3.357 7.5 7.5 7.5c6.279 0 12.183 2.446 16.63 6.892 4.438 4.429 6.882 10.327 6.882 16.608 0 12.964-10.547 23.511-23.512 23.511h-231.344v-6.885c0-.051.004-.102.004-.154v-193.38c0-2.119-.213-4.189-.61-6.193l102.904-62.064c8.481-5.116 18.438-6.776 27.986-4.814v25.422h-11.563c-4.143 0-7.5 3.358-7.5 7.5s3.357 7.5 7.5 7.5h123.754c6.279 0 12.184 2.446 16.63 6.892 4.438 4.429 6.882 10.327 6.882 16.608 0 12.964-10.547 23.511-23.512 23.511-4.143 0-7.5 3.358-7.5 7.5s3.357 7.5 7.5 7.5h11.131c12.965 0 23.512 10.547 23.512 23.511s-10.547 23.511-23.512 23.511h-11.131c-4.143 0-7.5 3.358-7.5 7.5s3.357 7.5 7.5 7.5c6.279 0 12.184 2.446 16.63 6.892 4.438 4.429 6.882 10.331 6.882 16.619 0 12.966-10.547 23.513-23.512 23.513z"/><path d="m111.236 474.983c16.238 0 29.448-13.21 29.448-29.448s-13.21-29.448-29.448-29.448c-16.237 0-29.447 13.21-29.447 29.448s13.21 29.448 29.447 29.448zm0-43.896c7.967 0 14.448 6.481 14.448 14.448s-6.481 14.448-14.448 14.448c-7.966 0-14.447-6.481-14.447-14.448s6.481-14.448 14.447-14.448z"/></g></g></svg>