<svg height="512pt" viewBox="0 -11 512.00083 512" width="512pt" xmlns="http://www.w3.org/2000/svg"><g fill-rule="evenodd"><path d="m153.074219 130.351562v12.109376c0 15.464843 17.132812 31.164062 32.425781 30.957031 0 0 20.363281-22.304688 20.363281-27.644531l-22.292969-27.652344h-18.261718c-6.742188 0-12.234375 5.523437-12.234375 12.230468zm0 0" fill="#eda93b"/><path d="m403.753906 118.121094-22.027344 24.59375c0 5.371094 20.066407 30.765625 20.066407 30.765625 15.320312.207031 32.691406-15.554688 32.691406-31.019531v-12.109376c0-6.707031-5.523437-12.230468-12.234375-12.230468zm0 0" fill="#eda93b"/><path d="m288.242188 225.75-58.972657 15.613281c-6.296875 12.226563-14.671875 22.585938-29.933593 25.824219 36.613281 105.074219 164.121093 102.433594 184.757812-1.21875-12.5625-4.242188-19.894531-13.859375-25.566406-24.992188zm0 0" fill="#fcc368"/><path d="m473.328125 467.363281h-358.675781c-22.773438 0-43.652344-15.765625-37.621094-41.230469l21.792969-92.21875c11.109375-47.015624 42.164062-63.378906 91.875-65.683593 3.109375-.125 5.996093-.484375 8.632812-1.039063 34.066407 63.066406 161.75 63.003906 184.761719-1.226562 3.863281 1.308594 8.230469 2.078125 13.1875 2.265625 49.710938 2.304687 80.765625 18.667969 91.875 65.683593l21.792969 92.21875c6.027343 25.464844-14.847657 41.230469-37.621094 41.230469zm0 0" fill="#64b0d9"/><path d="m219.171875 262.464844c9.234375 6.976562 19.363281 13.003906 30.023437 17.664062 3.828126 1.691406 7.691407 3.175782 11.609376 4.449219 22.539062 7.421875 39.464843 7.390625 61.972656-.027344 6.976562-2.316406 13.867187-5.078125 20.308594-8.667969 3.207031-1.75 5.078124-5.640624 13.777343.742188 2.941407 2.136719 6.265625 3.917969 10.039063 5.195312 2.226562.742188 4.601562 1.304688 7.15625 1.691407 4.304687-5.195313 7.691406-11.042969 10.035156-17.542969-5.492188-1.839844-9.976562-4.71875-13.777344-8.3125-4.871094-4.628906-8.609375-10.417969-11.789062-16.679688-11.222656 9.617188-23.902344 17.484376-37.296875 22.46875-19.984375 7.449219-35.007813 7.449219-54.992188.03125-3.503906-1.277343-6.949219-2.761718-10.304687-4.425781-9.472656-4.6875-18.46875-10.714843-26.664063-17.6875-3.625 7.003907-7.929687 13.414063-13.808593 18.222657 1.21875.949218 2.464843 1.929687 3.710937 2.878906zm0 0" fill="#eda93b"/><path d="m384.09375 265.96875c-2.347656 6.5-5.730469 12.347656-10.035156 17.542969 1.601562.265625 3.292968.414062 5.015625.503906.355469.03125.683593.03125 1.039062.058594 49.707031 2.316406 80.738281 18.671875 91.875 65.6875l21.765625 92.222656c1.960938 8.28125 1.070313 15.554687-1.8125 21.578125 13.957032-6.113281 23.28125-19.320312 19.003906-37.429688l-21.792968-92.222656c-11.105469-47.015625-42.167969-63.371094-91.875-65.683594-4.957032-.179687-9.324219-.953124-13.183594-2.257812zm0 0" fill="#4a83c9"/><path d="m403.753906 97.164062c0-87.472656-96.984375-114.898437-162.191406-86.253906-33.078125 14.542969-57.992188 43.453125-57.992188 86.253906 100.335938 15.675782 91.84375 84.894532 220.183594 0zm0 0" fill="#808080"/><path d="m403.753906 97.164062c-131.84375 50.132813-124.035156-25.882812-220.183594 0v59.8125c0 28.136719 18.648438 61.382813 45.699219 84.386719 8.195313 6.972657 17.191407 13 26.664063 17.6875 3.355468 1.664063 6.800781 3.148438 10.304687 4.425781 19.984375 7.421876 35.007813 7.421876 54.992188-.03125 13.394531-4.988281 26.074219-12.851562 37.296875-22.46875 26.785156-22.972656 45.226562-56.011718 45.226562-84zm0 0" fill="#ffdda6"/><path d="m372.039062 116.609375v50.8125c0 22.648437-12.058593 48.5625-30.824218 69.785156-4.453125 5.046875-9.265625 9.792969-14.402344 14.21875-7.78125 6.675781-16.273438 12.496094-25.210938 17.097657 6.207032-.773438 12.621094-2.464844 19.628907-5.078126 13.390625-4.988281 26.070312-12.851562 37.296875-22.46875 26.785156-22.972656 45.222656-56.011718 45.222656-84v-59.8125c-7.691406 3.03125-15.527344 5.699219-23.429688 8.074219-2.847656.863281-5.582031 1.664063-8.285156 2.375v8.996094zm0 0" fill="#fcc368"/></g><path d="m94.101562 269.328125c-2.027343 0-4.054687-.785156-5.578124-2.351563-3.003907-3.078124-2.9375-8.007812.144531-11.007812 7.59375-7.390625 5.96875-10.566406 2.042969-18.238281-4.421876-8.648438-11.105469-21.710938 6.042968-37.832031 3.132813-2.945313 8.058594-2.796876 11.007813.335937 2.945312 3.128906 2.792969 8.054687-.335938 11-8.628906 8.105469-6.816406 11.648437-2.847656 19.410156 4.292969 8.390625 10.78125 21.070313-5.042969 36.476563-1.515625 1.472656-3.476562 2.207031-5.433594 2.207031zm0 0" fill="#c2c7cc"/><path d="m47.125 304.679688c-2.027344 0-4.050781-.785157-5.578125-2.351563-3-3.082031-2.9375-8.007813.144531-11.003906 7.59375-7.390625 5.964844-10.566407 2.035156-18.238281-4.433593-8.648438-11.128906-21.714844 6.019532-37.835938 3.132812-2.945312 8.0625-2.796875 11.007812.335938 2.949219 3.128906 2.796875 8.054687-.335937 11-8.621094 8.105468-6.808594 11.644531-2.832031 19.40625 4.300781 8.390624 10.800781 21.074218-5.027344 36.480468-1.515625 1.472656-3.476563 2.207032-5.433594 2.207032zm0 0" fill="#c2c7cc"/><path d="m213.886719 430.917969h-18.292969c-2.179688 0-4.261719-.914063-5.734375-2.519531-1.476563-1.609376-2.023437-4.972657-2.023437-5.929688 0-4.300781 3.675781-7.117188 7.976562-7.117188 2.546875 0 18.074219.003907 18.074219.003907 12.570312 0 22.800781-10.226563 22.800781-22.792969 0-12.550781-10.226562-22.761719-22.800781-22.761719h-18.171875c-4.300782 0-7.789063-3.484375-7.789063-7.78125s3.488281-7.78125 7.789063-7.78125h18.171875c21.160156 0 38.371093 17.191407 38.371093 38.324219 0 21.148438-17.210937 38.355469-38.371093 38.355469zm0 0" fill="#f78411"/><path d="m15.144531 357.183594v71.441406c0 9.945312 4.277344 18.96875 11.074219 25.289062l77.890625 19.207032 75.09375-19.207032c9.265625-7.300781 15.5-18.34375 16.394531-30.777343.085938-1.039063.117188-2.078125.117188-3.117188v-62.835937c0-11.816406-9.652344-21.492188-21.46875-21.492188h-137.632813c-11.789062 0-21.46875 9.675782-21.46875 21.492188zm0 0" fill="#f78411" fill-rule="evenodd"/><path d="m17.550781 453.917969c-9.652343 0-17.550781 7.894531-17.550781 17.539062 0 9.648438 7.898438 17.542969 17.550781 17.542969h169.878907c9.648437 0 17.546874-7.894531 17.546874-17.542969 0-1.394531-.175781-2.757812-.503906-4.09375-1.839844-7.6875-8.820312-13.445312-17.042968-13.445312zm0 0" fill="#e6e6e6" fill-rule="evenodd"/><path d="m157.796875 362.878906v57.140625c0 .742188-.03125 1.484375-.0625 2.226563-.027344.296875-.027344.59375-.058594.886718-.890625 12.4375-7.125 23.480469-16.390625 30.78125h37.917969c9.265625-7.300781 15.5-18.34375 16.394531-30.78125.085938-1.039062.117188-2.074218.117188-3.113281v-62.835937c0-11.816406-9.652344-21.492188-21.46875-21.492188h-37.917969c11.789063 0 21.46875 9.675782 21.46875 21.492188zm0 0" fill="#f74311" fill-rule="evenodd"/><path d="m149.511719 453.917969c4.511719 0 8.640625 1.75 11.789062 4.570312 1.007813.949219 1.929688 2.015625 2.730469 3.175781 1.15625 1.691407 2.019531 3.621094 2.523438 5.699219.328124 1.335938.503906 2.699219.503906 4.09375 0 9.648438-7.898438 17.542969-17.546875 17.542969h37.917969c9.652343 0 17.550781-7.894531 17.550781-17.542969 0-1.394531-.179688-2.757812-.507813-4.09375-1.839844-7.6875-8.816406-13.445312-17.042968-13.445312zm0 0" fill="#c2c7cc" fill-rule="evenodd"/><path d="m74.738281 372.589844c-4.300781 0-7.785156-3.480469-7.785156-7.777344v-26.507812c0-4.296876 3.484375-7.78125 7.785156-7.78125s7.789063 3.484374 7.789063 7.78125v26.507812c0 4.296875-3.488282 7.777344-7.789063 7.777344zm0 0" fill="#c2c7cc"/><path d="m57.753906 373.269531v26.238281c0 4.660157 3.800782 8.460938 8.464844 8.460938h17.074219c4.660156 0 8.464843-3.800781 8.464843-8.460938v-26.238281c0-1.601562-.445312-3.085937-1.21875-4.363281-1.484374-2.433594-4.1875-4.09375-7.246093-4.09375h-17.074219c-4.664062 0-8.464844 3.796875-8.464844 8.457031zm0 0" fill="#e6e6e6" fill-rule="evenodd"/><path d="m403.753906 97.164062c0-87.472656-96.984375-114.898437-162.191406-86.253906-1.484375.652344-2.941406 1.335938-4.367188 2.046875 61.914063-11.902343 134.84375 18.789063 134.84375 94.65625 10.777344-2.96875 21.347657-6.378906 31.714844-10.449219zm0 0" fill="#666" fill-rule="evenodd"/><path d="m459.765625 467.363281h-15.804687l-12.789063-52.050781c-1.03125-4.167969 1.523437-8.382812 5.699219-9.410156 4.183594-1.019532 8.398437 1.535156 9.425781 5.703125l13.242187 53.90625c.15625.617187.226563 1.242187.226563 1.851562zm0 0" fill="#4a83c9"/><path d="m236.453125 162.886719c-1.832031 0-3.667969-.640625-5.148437-1.945313-3.226563-2.84375-3.535157-7.761718-.6875-10.984375 6.167968-6.988281 17.132812-7.757812 21.558593-7.761719 4.480469-.015624 15.441407.734376 21.667969 7.746094 2.855469 3.214844 2.558594 8.132813-.65625 10.984375-3.21875 2.855469-8.140625 2.558594-10.992188-.65625-.929687-1.042969-4.628906-2.511719-9.957031-2.511719-.015625 0-.027343 0-.042969 0-5.257812.007813-9.015624 1.492188-9.902343 2.496094-1.539063 1.742188-3.683594 2.632813-5.839844 2.632813zm0 0" fill="#666"/><path d="m316.535156 162.886719c-1.832031 0-3.667968-.640625-5.148437-1.945313-3.226563-2.84375-3.53125-7.761718-.6875-10.984375 6.171875-6.988281 17.136719-7.757812 21.5625-7.761719h.050781c4.476562 0 15.414062.761719 21.617188 7.746094 2.851562 3.214844 2.558593 8.132813-.65625 10.984375-3.21875 2.855469-8.140626 2.558594-10.996094-.65625-.929688-1.046875-4.660156-2.511719-9.996094-2.511719-5.257812.007813-9.019531 1.496094-9.902344 2.496094-1.539062 1.742188-3.6875 2.632813-5.84375 2.632813zm0 0" fill="#666"/></svg>