<svg id="Capa_1" enable-background="new 0 0 512 512" height="512" viewBox="0 0 512 512" width="512" xmlns="http://www.w3.org/2000/svg"><g><path d="m436 60h-38c-8.284 0-15 6.716-15 15l-12.75 49.25 12.75 87.75h68v-137c0-8.284-6.716-15-15-15z" fill="#704c55"/><path d="m300 212v-152h68c8.284 0 15 6.716 15 15v137z" fill="#a34f3e"/><path d="m75 384c-8.284 0-15 6.716-15 15v38c0 8.284 6.716 15 15 15l49.25 12.75 87.75-12.75v-68z" fill="#7ed8f6"/><path d="m263 454v-152h-68c-8.284 0-15 6.716-15 15v137z" fill="#ff6c6c"/><path d="m165 135v32c0 24.81-20.19 45-45 45h-30c-24.81 0-45-20.19-45-45v-32c0-8.28 6.72-15 15-15h90c8.28 0 15 6.72 15 15z" fill="#fff5f5"/><path d="m165 135v32c0 24.81-20.19 45-45 45h-15v-92h45c8.28 0 15 6.72 15 15z" fill="#efe2dd"/><path d="m480 332v20.92c0 44.63-15.23 87.62-43.77 122.64l-16.23-.24-16.62-.25c-28.29-34.93-43.38-77.73-43.38-122.15v-20.92c0-8.28 6.72-15 15-15h90c8.28 0 15 6.72 15 15z" fill="#fff5f5"/><path d="m480 332v20.92c0 44.63-15.23 87.62-43.77 122.64l-16.23-.24v-158.32h45c8.28 0 15 6.72 15 15z" fill="#efe2dd"/><path d="m149.89 82.44c.36 8.28-6.07 15.28-14.35 15.63-.21.01-.43.01-.64.01h-29.9l-30.54-.01c-8.28-.35-14.71-7.35-14.35-15.63 1.25-29.47 13.42-57.19 34.28-78.05 2.82-2.81 6.63-4.39 10.61-4.39s7.79 1.58 10.61 4.39c20.86 20.86 33.03 48.58 34.28 78.05z" fill="#59c36a"/><path d="m149.89 82.44c.36 8.28-6.07 15.28-14.35 15.63-.21.01-.43.01-.64.01h-29.9v-98.08c3.98 0 7.79 1.58 10.61 4.39 20.86 20.86 33.03 48.58 34.28 78.05z" fill="#149084"/><path d="m195 60c8.28 0 15 6.72 15 15 0 30.69-18.52 57.4-44.98 69h-120.03c-26.46-11.59-44.99-38.31-44.99-69 0-8.28 6.72-15 15-15h30c24.51 0 46.31 11.82 60 30.05 13.69-18.23 35.49-30.05 60-30.05z" fill="#97de3d"/><path d="m195 60c8.28 0 15 6.72 15 15 0 30.69-18.52 57.4-44.98 69h-60.02v-53.95c13.69-18.23 35.49-30.05 60-30.05z" fill="#59c36a"/><path d="m315 257v195h182c8.28 0 15 6.72 15 15v30c0 8.28-6.72 15-15 15h-482c-8.28 0-15-6.72-15-15v-30c0-8.28 6.72-15 15-15h240v-195h-240c-8.28 0-15-6.72-15-15v-30c0-8.28 6.72-15 15-15h240v-182c0-8.28 6.72-15 15-15h30c8.28 0 15 6.72 15 15v182h182c8.28 0 15 6.72 15 15v30c0 8.28-6.72 15-15 15z" fill="#ffb64c"/><path d="m315 257v195h182c8.28 0 15 6.72 15 15v30c0 8.28-6.72 15-15 15h-212v-512h15c8.28 0 15 6.72 15 15v182h182c8.28 0 15 6.72 15 15v30c0 8.28-6.72 15-15 15z" fill="#e68a44"/></g></svg>